# xmcd
#
# Track frame offsets:
#	150
#	15270
#	32458
#	48182
#	60944
#	81394
#	98580
#	121702
#	142592
#
# Disc length: 2093 seconds
#
# Revision: 1
# Processed by: cddbd v1.5.2PL0 Copyright (c) Steve Scherf et al.
# Submitted via: EZCDAudioConverter 4.0.2.1
#
DISCID=54082b09
DTITLE=린 (Lyn) - Lyn 9th Album ‘9X9th’
DYEAR=2015
DGENRE=Ballad R&B
TTITLE0=사랑은 그렇게 또 다른 누구에게
TTITLE1=이별주
TTITLE2=주정 블루스
TTITLE3=나 하나만 남겨줘요
TTITLE4=Only you
TTITLE5=나를 봐요
TTITLE6=아무도 모르게
TTITLE7=청사포
TTITLE8=그리움은 사랑이 아니더이다
EXTD=
EXTT0=
EXTT1=
EXTT2=
EXTT3=
EXTT4=
EXTT5=
EXTT6=
EXTT7=
EXTT8=
PLAYORDER=
